<svg viewBox="0 0 512 512" xmlns="http://www.w3.org/2000/svg" xmlns:xlink="http://www.w3.org/1999/xlink"><defs><path id="a" d="m190.56 329.07c8.63 17.3 122.4 17.12 130.93 0 8.52-17.1-47.9-119.78-65.46-119.8-17.57 0-74.1 102.5-65.47 119.8z"/><linearGradient id="b" gradientUnits="userSpaceOnUse" x1="126.15" x2="457.68" y1="219.32" y2="410.73"><stop offset="0" stop-color="#aa5cc3"/><stop offset="1" stop-color="#00a4dc"/></linearGradient><path id="c" d="m58.75 417.03c25.97 52.15 368.86 51.55 394.55 0s-144.37-360.95-197.27-360.95c-52.92 0-223.25 308.8-197.28 360.95zm68.04-45.25c-17.02-34.17 94.6-236.5 129.26-236.5 34.67 0 146.1 202.7 129.26 236.5-16.83 33.8-241.5 34.17-258.52 0z"/></defs><rect fill="#fff" height="512" rx="15%" width="512"/><use fill="url(#b)" xlink:href="#a"/><use fill="none" xlink:href="#a"/><use fill="url(#b)" xlink:href="#c"/><use fill="none" xlink:href="#c"/></svg>